<svg xmlns="http://www.w3.org/2000/svg" viewBox="0 0 512 512" width="512" height="512">
  <defs>
    <linearGradient id="grad1" x1="0%" y1="0%" x2="100%" y2="100%">
      <stop offset="0%" style="stop-color:#2563eb;stop-opacity:1" />
      <stop offset="100%" style="stop-color:#4f46e5;stop-opacity:1" />
    </linearGradient>
  </defs>
  <rect width="512" height="512" rx="128" fill="url(#grad1)" />
  <path d="M256 128c-26.5 0-48 21.5-48 48 0 16.6 8.5 31.2 21.3 40L106.7 320c-10.7 8.5-10.7 23.5 0 32l21.3 17.1C138.7 377.6 153.7 377.6 164.3 369.1L256 296l91.7 73.1c10.7 8.5 25.6 8.5 36.3 0l21.3-17.1c10.7-8.5 10.7-23.5 0-32L282.7 216c12.8-8.8 21.3-23.4 21.3-40 0-26.5-21.5-48-48-48zm0 24c13.3 0 24 10.7 24 24s-10.7 24-24 24-24-10.7-24-24 10.7-24 24-24z" fill="white"/>
</svg>
